<svg width="18" height="18" viewBox="0 0 18 18" fill="none" xmlns="http://www.w3.org/2000/svg">
<g clip-path="url(#clip0_1536_10922)">
<path d="M9.60876 14.1985C12.6114 13.411 14.6206 12.2196 13.607 8.47728C13.1626 6.83084 11.2501 6.06303 9.95638 5.15347C8.30938 3.99359 8.03544 0.0791553 5.93901 0.646718C4.14995 1.14048 2.62923 2.32262 1.70942 3.93459C0.789611 5.54657 0.545576 7.4572 1.03068 9.24862C1.51579 11.04 2.69056 12.5665 4.29807 13.4941C5.90559 14.4216 7.81501 14.6749 9.60876 14.1985Z" fill="#F4AEAB" stroke="#5C128D" stroke-width="0.0625" stroke-linecap="round" stroke-linejoin="round"/>
<path d="M5.49282 5.06265C5.49282 5.06265 3.2625 4.97208 2.53913 6.28159C1.81575 7.59108 3.27038 10.1066 4.67663 11.1725C6.82032 12.7931 8.21588 11.991 8.21588 11.991C8.21588 11.991 8.74238 9.35846 8.2035 8.38196C7.685 7.58373 7.06816 6.85388 6.3675 6.20958C6.3675 6.20958 7.75519 5.95308 7.27988 5.32365C6.98867 4.9294 6.78326 4.47853 6.67688 4.00009C6.67688 4.00009 7.22194 2.94259 5.9535 2.93752C4.68507 2.93246 4.28063 3.77621 4.50282 4.42702C4.62009 4.75304 4.71592 5.08638 4.78969 5.4249" fill="#FFDEA2"/>
<path d="M8.2183 11.9912C8.2183 11.9912 6.82274 12.7933 4.67905 11.1727C3.2728 10.109 1.81424 7.5913 2.54155 6.2818C3.26886 4.9723 5.49299 5.06286 5.49299 5.06286" stroke="#5C128D" stroke-width="0.0625" stroke-linecap="round" stroke-linejoin="round"/>
<path d="M10.5451 12.4225C11.7624 12.0726 12.5628 11.1411 12.2129 9.92384C11.863 8.70659 10.3977 7.32565 9.18047 7.67384C7.96322 8.02202 7.35741 9.63527 7.70616 10.852C7.78935 11.1415 7.9288 11.4119 8.11652 11.6476C8.30424 11.8833 8.53656 12.0796 8.80021 12.2255C9.06385 12.3713 9.35365 12.4638 9.65305 12.4976C9.95245 12.5314 10.2556 12.5059 10.5451 12.4225Z" fill="#FFDEA2" stroke="#5C128D" stroke-width="0.0625" stroke-linecap="round" stroke-linejoin="round"/>
<path d="M8.18677 8.16732C7.94265 7.72913 7.11183 6.43538 5.98065 6.76107C4.62446 7.15144 5.9379 10.4443 5.9379 10.4443M4.70602 4.99763C4.70602 4.99763 3.79365 2.98444 5.24715 2.93325C6.70065 2.88207 7.13771 3.12394 6.6534 3.9975M6.58477 4.34344C6.9591 4.53297 7.2454 4.8602 7.38352 5.25638C7.67602 6.27338 5.30227 6.95569 4.52658 6.81169" stroke="#5C128D" stroke-width="0.0625" stroke-linecap="round" stroke-linejoin="round"/>
<path d="M14.625 17.4375L17.4375 14.0625H15.75V10.6875C15.75 10.3891 15.6315 10.103 15.4205 9.89201C15.2095 9.68103 14.9234 9.5625 14.625 9.5625C14.3266 9.5625 14.0405 9.68103 13.8295 9.89201C13.6185 10.103 13.5 10.3891 13.5 10.6875V14.0625H11.8125L14.625 17.4375Z" fill="#E86436" stroke="#5C128D" stroke-width="0.0625" stroke-linecap="round" stroke-linejoin="round"/>
</g>
<defs>
<clipPath id="clip0_1536_10922">
<rect width="18" height="18" fill="white"/>
</clipPath>
</defs>
</svg>
