<svg width="18" height="18" viewBox="0 0 18 18" fill="none" xmlns="http://www.w3.org/2000/svg">
<g clip-path="url(#clip0_1536_10969)">
<path d="M8.99998 14.9632C8.6733 14.9632 8.34606 14.8859 8.05368 14.7396C7.17009 14.2974 5.44463 13.3492 3.81697 11.9669C1.69961 10.1688 0.444584 8.23871 0.0867726 6.23026C-0.191169 4.67008 0.205678 3.07736 1.17549 1.86049C2.07369 0.733553 3.34647 0.0749647 4.7594 0.00610588C4.84248 0.00204706 4.92666 0 5.00953 0C6.3333 0 7.58296 0.510141 8.52835 1.43647C8.6991 1.6038 8.85655 1.78136 8.99995 1.96772C9.14342 1.78136 9.30083 1.60376 9.47158 1.43644C10.4169 0.510141 11.6666 0 12.9904 0C13.0733 0 13.1575 0.00204706 13.2406 0.00610588C14.6535 0.0749647 15.9263 0.733553 16.8246 1.86056C17.7944 3.0774 18.1912 4.67012 17.9132 6.23029C17.5554 8.23867 16.3004 10.1688 14.183 11.9669C12.5554 13.3492 10.8299 14.2974 9.94625 14.7396C9.65391 14.8859 9.32667 14.9632 8.99998 14.9632Z" fill="url(#paint0_linear_1536_10969)"/>
<path d="M0.597168 7.89648C1.21453 9.30821 2.29203 10.6716 3.81684 11.9665C5.4445 13.3488 7.16996 14.2969 8.05354 14.7391C8.34592 14.8855 8.67317 14.9628 8.99985 14.9628C9.32653 14.9628 9.65374 14.8855 9.94616 14.7391C10.8298 14.2969 12.5552 13.3487 14.1829 11.9665C15.7077 10.6716 16.7851 9.30821 17.4025 7.89648H0.597168Z" fill="url(#paint1_linear_1536_10969)"/>
<path d="M8.52835 1.43647C7.58296 0.510141 6.33331 0 5.00953 0C4.92666 0 4.84248 0.00204706 4.7594 0.00610588C3.34647 0.0749647 2.07369 0.733553 1.17549 1.86049C0.205647 3.07736 -0.191165 4.67008 0.0867762 6.23026C0.284212 7.33849 0.755423 8.4228 1.49335 9.47432L8.99995 1.96772C8.85655 1.78136 8.69911 1.60384 8.52835 1.43647Z" fill="url(#paint2_linear_1536_10969)"/>
<path d="M14.5793 5.09668L6.31787 12.8292L8.34802 14.8594C8.55834 14.9274 8.77907 14.9636 8.9998 14.9636C9.32648 14.9636 9.6537 14.8862 9.94611 14.7399C10.8298 14.2977 12.5552 13.3495 14.1828 11.9673C15.702 10.6772 16.7771 9.31909 17.3956 7.91294L14.5793 5.09668Z" fill="url(#paint3_linear_1536_10969)"/>
<path d="M10.6825 8.72124C10.1465 8.72124 9.71191 8.28669 9.71191 7.75065V5.50347C9.71191 4.61657 10.2414 3.82421 11.0607 3.48482C11.8802 3.14537 12.8148 3.33133 13.4419 3.95847L14.5793 5.09582C14.9583 5.47485 14.9583 6.08939 14.5793 6.46845C14.2002 6.84754 13.5857 6.84747 13.2067 6.46845L12.0693 5.33109C11.9929 5.25465 11.9035 5.23679 11.8036 5.27826C11.7037 5.31962 11.6531 5.3954 11.6531 5.50351V7.75068C11.6531 8.28666 11.2185 8.72124 10.6825 8.72124Z" fill="url(#paint4_linear_1536_10969)"/>
<path d="M9.49261 7.1929C9.34643 7.1929 9.22791 7.07441 9.22791 6.92819C9.22791 6.01435 9.58378 5.15523 10.2299 4.50906L10.5272 4.21181C10.8408 3.89819 10.8408 3.38798 10.5272 3.07439C10.2136 2.76077 9.70336 2.7607 9.38977 3.07439L9.3412 3.12295C9.03245 3.43171 8.53007 3.43171 8.22128 3.12295C7.91257 2.81417 7.91257 2.31179 8.22128 2.00304L8.59798 1.62634C8.70136 1.523 8.86897 1.52297 8.97231 1.62638C9.07568 1.72975 9.07568 1.89737 8.97231 2.00071L8.59565 2.37737C8.49333 2.47968 8.49333 2.64624 8.59565 2.74863C8.69797 2.85087 8.86448 2.85091 8.96687 2.74859L9.01544 2.70003C9.53543 2.18004 10.3816 2.18007 10.9016 2.70003C11.1534 2.95195 11.2922 3.28686 11.2922 3.64308C11.2922 3.99934 11.1534 4.33425 10.9016 4.58618L10.6043 4.88343C10.0581 5.42964 9.75732 6.15578 9.75732 6.92823C9.75732 7.07441 9.6388 7.1929 9.49261 7.1929Z" fill="url(#paint5_linear_1536_10969)"/>
<path d="M15.5879 6.7261L14.4505 5.58875C13.8234 4.96161 12.8888 4.77564 12.0693 5.1151C11.4038 5.39075 10.9296 5.96523 10.775 6.64648C10.0224 6.20293 9.15066 6.03868 8.30988 6.15423C8.30988 6.15423 8.30988 6.15374 8.30988 6.15349C8.30988 4.44642 6.92607 3.06257 5.219 3.0625C3.50448 3.06243 2.11559 4.46188 2.12801 6.17632C2.13814 7.57612 3.0788 8.75456 4.36209 9.12402C4.74422 9.23403 5.00353 9.58503 5.00741 9.98265C5.01687 10.9558 5.39515 11.9261 6.14254 12.6656C7.64491 14.1521 10.0963 14.13 11.5727 12.6177C12.3394 11.8323 12.7009 10.7989 12.6571 9.77971C12.6499 9.61281 12.6436 9.4459 12.6449 9.27885L12.6617 7.13371C12.6617 7.02363 12.7142 6.94704 12.8178 6.90621C12.9075 6.87084 13.01 6.89336 13.0782 6.96155L14.2153 8.09865C14.5943 8.47768 15.2088 8.47775 15.5879 8.09865C15.9669 7.71966 15.9669 7.10512 15.5879 6.7261Z" fill="url(#paint6_linear_1536_10969)"/>
<path d="M3.49854 8.72171C3.76077 8.89773 4.05117 9.03499 4.36197 9.12446C4.7441 9.23447 5.00341 9.58547 5.00729 9.98306C5.01675 10.9562 5.39503 11.9265 6.14242 12.666C7.64478 14.1525 10.0962 14.1304 11.5726 12.6181C12.3393 11.8328 12.7007 10.7993 12.6569 9.78011C12.6498 9.61321 12.6435 9.4463 12.6448 9.27926L12.6491 8.72168L3.49854 8.72171Z" fill="url(#paint7_linear_1536_10969)"/>
<path d="M5.21892 9.24448C6.92602 9.24448 8.30991 7.86059 8.30991 6.15349C8.30991 4.44638 6.92602 3.0625 5.21892 3.0625C3.51181 3.0625 2.12793 4.44638 2.12793 6.15349C2.12793 7.86059 3.51181 9.24448 5.21892 9.24448Z" fill="url(#paint8_linear_1536_10969)"/>
<path d="M7.8958 9.04351H7.81092C7.27487 9.04351 6.84033 8.60897 6.84033 8.07293C6.84033 7.53688 7.27487 7.10234 7.81092 7.10234H7.8958C8.44011 7.10234 8.88291 6.65954 8.88291 6.11523V5.18153C8.88291 4.64548 9.31745 4.21094 9.8535 4.21094C10.3895 4.21094 10.8241 4.64548 10.8241 5.18153V6.11523C10.8241 7.72994 9.51047 9.04351 7.8958 9.04351Z" fill="url(#paint9_linear_1536_10969)"/>
<path d="M12.657 9.78012C12.6498 9.61322 12.6435 9.44631 12.6448 9.27926L12.6593 7.43066C11.6657 7.57484 10.9023 8.42984 10.9023 9.46343C10.9023 10.3911 11.5173 11.1748 12.3616 11.43C12.5824 10.9047 12.6811 10.3403 12.657 9.78012Z" fill="url(#paint10_linear_1536_10969)"/>
<path d="M11.4119 8.46649V7.87083C11.4119 7.78945 11.3135 7.74868 11.256 7.80625L10.4776 8.58466C9.72983 9.3324 9.65634 10.52 10.3062 11.3543L15.9571 17.8525C16.1083 18.0367 16.3853 18.0503 16.5538 17.8818L17.8792 16.5565C18.0366 16.399 18.0366 16.1437 17.8792 15.9863L12.1562 10.2633C11.6796 9.78674 11.4119 9.14043 11.4119 8.46649Z" fill="url(#paint11_linear_1536_10969)"/>
<path d="M16.4991 14.6064L17.8792 15.9866C18.0366 16.144 18.0366 16.3993 17.8792 16.5568L16.5539 17.8821C16.3854 18.0506 16.1083 18.037 15.9571 17.8528L14.6992 16.4063L16.4991 14.6064Z" fill="url(#paint12_linear_1536_10969)"/>
<path d="M13.2692 11.3764L11.6947 12.9509L10.306 11.3542C10.2591 11.294 10.2159 11.2318 10.1768 11.1682L11.7014 9.64355C11.8194 9.87007 11.9721 10.0792 12.156 10.2632L13.2692 11.3764Z" fill="url(#paint13_linear_1536_10969)"/>
<path d="M16.0272 14.1346L14.2603 15.9018L12.7251 14.1362L14.3769 12.4844L16.0272 14.1346Z" fill="url(#paint14_linear_1536_10969)"/>
<path d="M13.2343 11.3413H10.2962C10.0065 10.9633 9.86377 10.5144 9.86377 10.0671C9.86377 9.52797 10.0711 8.99115 10.4777 8.58477L11.2561 7.80633C11.3135 7.74865 11.4122 7.78938 11.4122 7.87084V8.46647C11.4122 9.14034 11.6799 9.78675 12.1563 10.2634L13.2343 11.3413Z" fill="url(#paint15_linear_1536_10969)"/>
<path d="M14.5014 8.46649V7.87083C14.5014 7.78945 14.5998 7.74868 14.6573 7.80625L15.4357 8.58466C16.1835 9.3324 16.257 10.52 15.6071 11.3543L9.95618 17.8525C9.80498 18.0367 9.52792 18.0503 9.35943 17.8818L8.0341 16.5564C7.87665 16.399 7.87665 16.1437 8.0341 15.9862L13.7571 10.2632C14.2337 9.78674 14.5014 9.14043 14.5014 8.46649Z" fill="url(#paint16_linear_1536_10969)"/>
<path d="M9.41417 14.6064L8.0341 15.9866C7.87665 16.144 7.87665 16.3993 8.0341 16.5568L9.35943 17.8821C9.52792 18.0506 9.80498 18.037 9.95618 17.8528L11.2141 16.4063L9.41417 14.6064Z" fill="url(#paint17_linear_1536_10969)"/>
<path d="M15.4358 8.58477L14.6573 7.80633C14.5999 7.74865 14.5013 7.78938 14.5013 7.87084V8.46647C14.5013 9.14034 14.2336 9.78675 13.7572 10.2634L12.9568 11.0638L12.6792 11.3413H15.6172C15.9069 10.9633 16.0497 10.5144 16.0497 10.067C16.0497 9.52794 15.8424 8.99115 15.4358 8.58477Z" fill="url(#paint18_linear_1536_10969)"/>
<path d="M15.961 9.46331L15.4218 9.03297C14.7217 8.47416 13.8524 8.16982 12.9566 8.16982C12.0608 8.16982 11.1915 8.47416 10.4914 9.03297L9.95215 9.46331C10.0094 9.27248 10.5907 7.94157 10.5907 7.94157C10.9733 6.96929 11.9117 6.33008 12.9566 6.33008C14.0014 6.33008 14.9399 6.96929 15.3225 7.94157C15.3225 7.94157 15.9038 9.27269 15.961 9.46331Z" fill="url(#paint19_linear_1536_10969)"/>
</g>
<defs>
<linearGradient id="paint0_linear_1536_10969" x1="6.14949" y1="2.75749" x2="14.1515" y2="10.7595" gradientUnits="userSpaceOnUse">
<stop stop-color="#FEAEE1"/>
<stop offset="1" stop-color="#FE5694"/>
</linearGradient>
<linearGradient id="paint1_linear_1536_10969" x1="8.99978" y1="10.2701" x2="8.99978" y2="16.6232" gradientUnits="userSpaceOnUse">
<stop stop-color="#FD3581" stop-opacity="0"/>
<stop offset="0.277" stop-color="#F62C78" stop-opacity="0.277"/>
<stop offset="0.728" stop-color="#E11460" stop-opacity="0.728"/>
<stop offset="1" stop-color="#D2024E"/>
</linearGradient>
<linearGradient id="paint2_linear_1536_10969" x1="6.07411" y1="2.43328" x2="11.0388" y2="-0.790235" gradientUnits="userSpaceOnUse">
<stop stop-color="#FD3581" stop-opacity="0"/>
<stop offset="1" stop-color="#D2024E"/>
</linearGradient>
<linearGradient id="paint3_linear_1536_10969" x1="14.5311" y1="13.0455" x2="11.2487" y2="9.76309" gradientUnits="userSpaceOnUse">
<stop stop-color="#FD3581" stop-opacity="0"/>
<stop offset="1" stop-color="#D2024E"/>
</linearGradient>
<linearGradient id="paint4_linear_1536_10969" x1="10.2047" y1="3.76675" x2="11.9694" y2="6.30793" gradientUnits="userSpaceOnUse">
<stop stop-color="#FFEEE6"/>
<stop offset="1" stop-color="#FFB09E"/>
</linearGradient>
<linearGradient id="paint5_linear_1536_10969" x1="9.64096" y1="7.19293" x2="9.64096" y2="1.54887" gradientUnits="userSpaceOnUse">
<stop stop-color="#FD4755"/>
<stop offset="1" stop-color="#A72B2B"/>
</linearGradient>
<linearGradient id="paint6_linear_1536_10969" x1="5.78448" y1="2.18325" x2="11.9257" y2="11.5715" gradientUnits="userSpaceOnUse">
<stop stop-color="#FFEEE6"/>
<stop offset="1" stop-color="#FFB09E"/>
</linearGradient>
<linearGradient id="paint7_linear_1536_10969" x1="8.07954" y1="10.0167" x2="8.07954" y2="13.9696" gradientUnits="userSpaceOnUse">
<stop stop-color="#F89580" stop-opacity="0"/>
<stop offset="0.291" stop-color="#EE8D78" stop-opacity="0.292"/>
<stop offset="0.783" stop-color="#D37A64" stop-opacity="0.785"/>
<stop offset="0.997" stop-color="#C5715A"/>
</linearGradient>
<linearGradient id="paint8_linear_1536_10969" x1="5.239" y1="6.15921" x2="10.1096" y2="7.54743" gradientUnits="userSpaceOnUse">
<stop stop-color="#F89580" stop-opacity="0"/>
<stop offset="0.291" stop-color="#EE8D78" stop-opacity="0.292"/>
<stop offset="0.783" stop-color="#D37A64" stop-opacity="0.785"/>
<stop offset="0.997" stop-color="#C5715A"/>
</linearGradient>
<linearGradient id="paint9_linear_1536_10969" x1="7.56531" y1="6.03903" x2="10.53" y2="7.4155" gradientUnits="userSpaceOnUse">
<stop stop-color="#FFEEE6"/>
<stop offset="1" stop-color="#FFB09E"/>
</linearGradient>
<linearGradient id="paint10_linear_1536_10969" x1="12.9932" y1="9.93394" x2="11.4873" y2="8.68685" gradientUnits="userSpaceOnUse">
<stop stop-color="#F89580" stop-opacity="0"/>
<stop offset="0.291" stop-color="#EE8D78" stop-opacity="0.292"/>
<stop offset="0.783" stop-color="#D37A64" stop-opacity="0.785"/>
<stop offset="0.997" stop-color="#C5715A"/>
</linearGradient>
<linearGradient id="paint11_linear_1536_10969" x1="10.3878" y1="9.5473" x2="17.0159" y2="16.1754" gradientUnits="userSpaceOnUse">
<stop stop-color="#FD4755"/>
<stop offset="1" stop-color="#A72B2B"/>
</linearGradient>
<linearGradient id="paint12_linear_1536_10969" x1="16.438" y1="16.4409" x2="17.3772" y2="17.3801" gradientUnits="userSpaceOnUse">
<stop stop-color="#A72B2B" stop-opacity="0"/>
<stop offset="1" stop-color="#42210B"/>
</linearGradient>
<linearGradient id="paint13_linear_1536_10969" x1="11.5083" y1="11.1074" x2="12.6961" y2="12.2952" gradientUnits="userSpaceOnUse">
<stop stop-color="#A72B2B" stop-opacity="0"/>
<stop offset="1" stop-color="#42210B"/>
</linearGradient>
<linearGradient id="paint14_linear_1536_10969" x1="14.3091" y1="14.1851" x2="13.4282" y2="13.4414" gradientUnits="userSpaceOnUse">
<stop stop-color="#A72B2B" stop-opacity="0"/>
<stop offset="1" stop-color="#42210B"/>
</linearGradient>
<linearGradient id="paint15_linear_1536_10969" x1="11.549" y1="10.6778" x2="11.549" y2="8.31213" gradientUnits="userSpaceOnUse">
<stop stop-color="#A72B2B" stop-opacity="0"/>
<stop offset="1" stop-color="#42210B"/>
</linearGradient>
<linearGradient id="paint16_linear_1536_10969" x1="10.7168" y1="11.5524" x2="13.8745" y2="14.7101" gradientUnits="userSpaceOnUse">
<stop stop-color="#FD4755"/>
<stop offset="1" stop-color="#A72B2B"/>
</linearGradient>
<linearGradient id="paint17_linear_1536_10969" x1="9.47534" y1="16.4409" x2="8.53605" y2="17.3801" gradientUnits="userSpaceOnUse">
<stop stop-color="#A72B2B" stop-opacity="0"/>
<stop offset="1" stop-color="#42210B"/>
</linearGradient>
<linearGradient id="paint18_linear_1536_10969" x1="14.3645" y1="10.6777" x2="14.3645" y2="8.31209" gradientUnits="userSpaceOnUse">
<stop stop-color="#A72B2B" stop-opacity="0"/>
<stop offset="1" stop-color="#42210B"/>
</linearGradient>
<linearGradient id="paint19_linear_1536_10969" x1="11.2252" y1="7.89671" x2="14.403" y2="7.89671" gradientUnits="userSpaceOnUse">
<stop stop-color="#FD4755"/>
<stop offset="1" stop-color="#A72B2B"/>
</linearGradient>
<clipPath id="clip0_1536_10969">
<rect width="18" height="18" fill="white"/>
</clipPath>
</defs>
</svg>
