<svg xmlns="http://www.w3.org/2000/svg" width="16" height="16" fill="none" viewBox="0 0 16 16"><g clip-path="url(#clip0_1536_10227)"><path fill="#FF9EA7" d="M13.9825 0.262696C14.0203 0.262583 14.0574 0.271884 14.0907 0.289757C14.1239 0.307629 14.1522 0.33351 14.1729 0.365056C14.1936 0.396602 14.2062 0.432818 14.2094 0.470427C14.2126 0.508035 14.2063 0.545849 14.1913 0.580446C13.7788 1.52132 12.9983 3.59357 14.1368 5.35832C16.4803 8.99095 15.6475 11.1602 13.6144 14.5423C13.4326 14.8575 13.2965 15.1968 13.21 15.5502C13.1964 15.6042 13.1652 15.6522 13.1213 15.6865C13.0773 15.7207 13.0232 15.7393 12.9675 15.7393H8.15288C8.11979 15.7392 8.08704 15.7325 8.05654 15.7197C8.02603 15.7069 7.99836 15.6882 7.97512 15.6646C7.95188 15.641 7.93354 15.6131 7.92114 15.5824C7.90874 15.5517 7.90254 15.5189 7.90288 15.4858C7.90763 14.4818 7.63326 14.1644 7.13388 13.9483C5.78626 13.3627 3.07151 11.8946 2.76976 8.84195C2.47276 5.83695 4.25501 3.2832 7.71488 1.3252C7.77341 1.29229 7.82405 1.247 7.86327 1.1925C7.90249 1.138 7.92934 1.0756 7.94196 1.00965C7.95457 0.943701 7.95265 0.875794 7.93631 0.810666C7.91998 0.745539 7.88963 0.68476 7.84738 0.632571C7.82059 0.59918 7.80376 0.558905 7.79884 0.516378C7.79391 0.47385 7.80108 0.430795 7.81953 0.392162C7.83798 0.353528 7.86695 0.320884 7.90312 0.297982C7.9393 0.27508 7.9812 0.26285 8.02401 0.262696H13.9825Z"/><path fill="#fff" d="M12.1226 7.16669C11.1226 8.82019 12.4258 11.2144 9.19644 12.1977C7.00381 12.8653 4.23931 11.6048 3.76681 8.94632C3.29431 6.28782 5.89981 3.10419 8.50719 2.40407C11.9519 1.47907 13.9014 4.22669 12.1226 7.16669Z"/><path fill="#fff" d="M12.1226 7.16669C11.1226 8.82019 12.4258 11.2144 9.19644 12.1977C7.00381 12.8653 4.23931 11.6048 3.76681 8.94632C3.29431 6.28782 5.89981 3.10419 8.50719 2.40407C11.9519 1.47907 13.9014 4.22669 12.1226 7.16669Z"/><path fill="#F65E7B" d="M6.46804 8.57111C6.08154 8.45186 5.20991 7.82299 5.07379 7.70161C4.78704 7.44599 4.74004 7.18273 4.88829 6.97386C5.01029 6.80186 5.30816 6.74386 5.65754 6.95086C5.85866 7.06999 7.05191 7.37586 7.57379 7.27661L8.21341 8.19124C8.26504 8.26509 8.29299 8.35289 8.29354 8.443C8.29409 8.53311 8.26722 8.62126 8.21649 8.69573C8.16577 8.77021 8.09359 8.82749 8.00953 8.85998C7.92548 8.89246 7.83354 8.89861 7.74591 8.87761L6.46804 8.57111ZM8.41029 6.18786C8.17397 6.02804 7.97962 5.81366 7.84366 5.56286C7.69829 5.33673 7.38866 5.17948 7.18704 5.33211C6.99529 5.47723 6.95141 5.77536 7.08804 6.08986C7.30649 6.61276 7.69374 7.04745 8.18804 7.32461C8.31659 7.40449 8.46518 7.44622 8.61652 7.44494C8.76787 7.44365 8.91573 7.39941 9.04291 7.31736C9.10685 7.27477 9.1589 7.21661 9.19416 7.14836C9.22942 7.08011 9.24674 7.004 9.24448 6.92721C9.24221 6.85042 9.22045 6.77547 9.18123 6.70941C9.14201 6.64335 9.08662 6.58836 9.02029 6.54961L8.41029 6.18786Z"/><path fill="#FB7C90" d="M10.7948 3.27914C9.4268 2.90864 8.7823 3.82914 8.65893 4.55102C8.60835 4.73092 8.49368 4.8861 8.33655 4.98727C8.05118 5.18939 8.37517 5.36889 8.35317 5.51527C8.1973 5.99814 8.20105 6.33902 8.71567 6.52139C8.71567 6.52139 8.78768 6.54564 8.89693 6.57139C8.94518 6.5823 8.99003 6.6049 9.02752 6.63718C9.06501 6.66947 9.094 6.71047 9.11194 6.75658C9.12988 6.80269 9.13624 6.8525 9.13044 6.90163C9.12464 6.95077 9.10686 6.99773 9.07867 7.03839C9.04646 7.087 9.00248 7.12667 8.95081 7.15371C8.89914 7.18074 8.84147 7.19427 8.78317 7.19302C8.45517 7.18439 7.65418 6.83052 7.19568 6.46614C6.63818 6.02352 6.13318 6.48139 6.47218 7.05789C6.81003 7.59928 7.25394 8.0667 7.77717 8.43202C7.81367 8.45702 7.77155 8.51427 7.73305 8.49214C7.44555 8.32702 7.00505 8.10614 6.49143 8.20077C6.3133 8.23364 5.34493 8.57977 4.86805 8.48827C4.35005 8.38827 4.1293 8.74539 4.1998 9.05814C4.2623 9.33564 4.54518 9.51202 4.88955 9.55539C5.60993 9.64539 6.0133 9.64002 6.5813 10.2171C7.3888 11.0378 8.58455 11.6721 9.7438 11.032C10.6535 10.5299 11.0052 9.21339 10.9976 7.63439C10.9956 7.20939 10.9329 6.91052 11.1509 6.69302C11.4197 6.42489 11.791 6.20314 12.0787 5.49589C12.3393 4.85589 12.0639 3.62289 10.7948 3.27914Z"/><path fill="#F65E7B" d="M8.80329 5.06096C8.78046 5.06521 8.75686 5.06084 8.73707 5.04868C8.71728 5.03653 8.70271 5.01746 8.69617 4.99518C8.68964 4.97289 8.6916 4.94898 8.7017 4.92806C8.71179 4.90714 8.72928 4.89072 8.75079 4.88196L9.06067 4.75696C9.07215 4.75191 9.08454 4.74921 9.09709 4.74903C9.10964 4.74885 9.12209 4.7512 9.13372 4.75592C9.14535 4.76065 9.1559 4.76766 9.16477 4.77654C9.17364 4.78543 9.18063 4.796 9.18533 4.80763C9.19004 4.81927 9.19236 4.83173 9.19216 4.84428C9.19196 4.85683 9.18924 4.86921 9.18416 4.88068C9.17909 4.89216 9.17176 4.9025 9.16261 4.9111C9.15347 4.91969 9.14269 4.92636 9.13092 4.93071L8.82104 5.05571C8.81532 5.05806 8.80937 5.05982 8.80329 5.06096Z"/><path fill="#F65E7B" d="M9.02455 5.16297C9.00281 5.16707 8.98032 5.16335 8.96105 5.15246C8.94179 5.14157 8.927 5.12422 8.9193 5.10347L8.80018 4.78122C8.79564 4.76963 8.79346 4.75725 8.79376 4.74481C8.79406 4.73236 8.79684 4.7201 8.80193 4.70874C8.80702 4.69738 8.81432 4.68715 8.82341 4.67864C8.83249 4.67013 8.84318 4.66352 8.85485 4.65918C8.86652 4.65485 8.87894 4.65288 8.89138 4.6534C8.90382 4.65392 8.91603 4.65691 8.9273 4.66219C8.93857 4.66748 8.94867 4.67496 8.95702 4.68419C8.96537 4.69343 8.9718 4.70423 8.97593 4.71597L9.09568 5.0381C9.10429 5.06141 9.10331 5.08718 9.09296 5.10977C9.0826 5.13235 9.06371 5.14992 9.04043 5.1586C9.03527 5.16051 9.02996 5.16197 9.02455 5.16297ZM8.60318 5.85897C8.58581 5.86228 8.56786 5.8606 8.55141 5.85414C8.53495 5.84769 8.52066 5.83671 8.51018 5.82247C8.456 5.76363 8.38338 5.725 8.3043 5.71297C8.28054 5.70765 8.25978 5.6933 8.2464 5.67295C8.23302 5.6526 8.22807 5.62785 8.23259 5.60392C8.23712 5.58 8.25077 5.55876 8.27065 5.54471C8.29054 5.53065 8.31511 5.52488 8.33918 5.5286C8.46499 5.54863 8.57932 5.61349 8.66105 5.71122C8.67046 5.72398 8.67648 5.73891 8.67856 5.75462C8.68063 5.77034 8.67869 5.78632 8.6729 5.80108C8.66712 5.81583 8.6577 5.82889 8.6455 5.83901C8.63331 5.84914 8.61874 5.856 8.60318 5.85897Z"/><path fill="#FF5581" d="M3.37381 3.98023C3.34629 4.00344 3.31267 4.01824 3.27696 4.02286C3.24126 4.02748 3.20497 4.02172 3.17245 4.00627C3.13993 3.99082 3.11255 3.96634 3.09357 3.93574C3.07459 3.90514 3.06483 3.86973 3.06544 3.83373C3.06544 3.7971 3.06044 3.46698 2.80781 3.4526C2.68293 3.448 2.56075 3.41493 2.45059 3.35592C2.34043 3.29691 2.24521 3.21351 2.17219 3.1121C2.11971 3.02475 2.09 2.92562 2.08579 2.8238C2.08157 2.72199 2.10299 2.62074 2.14806 2.52935C2.16722 2.48345 2.20383 2.44704 2.24984 2.42814C2.29584 2.40923 2.34748 2.40938 2.39337 2.42854C2.43927 2.4477 2.47568 2.48431 2.49459 2.53032C2.51349 2.57632 2.51335 2.62795 2.49419 2.67385C2.43256 2.82135 2.47594 2.89048 2.49006 2.91323C2.53173 2.96313 2.58347 3.00367 2.64188 3.03219C2.7003 3.06071 2.76409 3.07657 2.82906 3.07873C3.32231 3.10673 3.44456 3.58935 3.44044 3.8406C3.4399 3.86727 3.43369 3.89353 3.4222 3.91761C3.41071 3.94168 3.39421 3.96303 3.37381 3.98023ZM2.09631 6.24298C2.09194 6.27862 2.07742 6.31227 2.05448 6.3399C2.03154 6.36754 2.00115 6.388 1.96692 6.39887C1.93268 6.40973 1.89605 6.41053 1.86137 6.40118C1.8267 6.39182 1.79544 6.37271 1.77131 6.3461C1.74631 6.3191 1.51756 6.0811 1.32294 6.24285C1.22832 6.3247 1.11623 6.38383 0.995255 6.41572C0.874278 6.44761 0.747611 6.45142 0.624937 6.42685C0.527005 6.39875 0.437698 6.34651 0.36521 6.27492C0.292722 6.20333 0.239374 6.11468 0.210062 6.0171C0.200815 5.99386 0.196312 5.96901 0.196815 5.944C0.197319 5.919 0.202821 5.89435 0.212996 5.8715C0.223171 5.84865 0.237814 5.82807 0.256064 5.81097C0.274313 5.79387 0.295799 5.78059 0.319258 5.77192C0.342716 5.76324 0.367673 5.75935 0.392659 5.76047C0.417644 5.76159 0.442153 5.76769 0.464744 5.77842C0.487334 5.78916 0.507549 5.8043 0.524197 5.82297C0.540846 5.84163 0.553593 5.86344 0.561687 5.8871C0.617187 6.0371 0.696062 6.05785 0.721937 6.06498C0.78645 6.07301 0.851934 6.06736 0.914115 6.04839C0.976296 6.02941 1.03378 5.99754 1.08281 5.95485C1.46269 5.6391 1.88119 5.90873 2.04944 6.09523C2.06733 6.11509 2.08077 6.13855 2.08886 6.16403C2.09694 6.18951 2.09948 6.21643 2.09631 6.24298ZM2.11419 9.23398C2.11967 9.26948 2.11484 9.30582 2.10026 9.33866C2.08569 9.3715 2.06198 9.39947 2.03197 9.41922C2.00196 9.43897 1.9669 9.44969 1.93097 9.45009C1.89504 9.45049 1.85976 9.44056 1.82931 9.42148C1.79806 9.40223 1.51281 9.23598 1.36981 9.44473C1.30119 9.5492 1.2096 9.63663 1.10204 9.70032C0.99448 9.76401 0.873793 9.80228 0.749187 9.81223C0.64735 9.81206 0.547183 9.78633 0.457878 9.73739C0.368573 9.68844 0.292989 9.61786 0.238062 9.5321C0.208706 9.49195 0.1965 9.44179 0.204131 9.39264C0.211761 9.3435 0.238602 9.29939 0.27875 9.27004C0.318897 9.24068 0.369061 9.22848 0.418207 9.23611C0.467354 9.24374 0.511456 9.27058 0.540812 9.31073C0.635062 9.43973 0.716562 9.43835 0.743437 9.43798C0.807679 9.42808 0.869114 9.40475 0.923735 9.36951C0.978355 9.33428 1.02494 9.28792 1.06044 9.23348C1.33956 8.82598 1.81581 8.97098 2.02869 9.10448C2.05139 9.11866 2.07078 9.13757 2.08554 9.15992C2.10029 9.18226 2.11006 9.20752 2.11419 9.23398ZM3.22981 11.6851C3.25353 11.7122 3.26894 11.7455 3.27421 11.7812C3.27948 11.8168 3.27438 11.8532 3.25953 11.886C3.24467 11.9188 3.22068 11.9466 3.19043 11.9661C3.16018 11.9857 3.12494 11.9961 3.08894 11.9961C3.05231 11.9961 2.72219 12.0079 2.71244 12.2606C2.71007 12.3856 2.67917 12.5084 2.62211 12.6196C2.56505 12.7308 2.48333 12.8275 2.38319 12.9024C2.29684 12.9564 2.19829 12.988 2.09658 12.9941C1.99486 13.0002 1.89325 12.9806 1.80106 12.9372C1.75605 12.9181 1.72027 12.8822 1.70136 12.8371C1.68246 12.792 1.68191 12.7413 1.69985 12.6958C1.71778 12.6504 1.75278 12.6137 1.79737 12.5936C1.84196 12.5736 1.89263 12.5717 1.93856 12.5885C2.08706 12.6474 2.15544 12.6029 2.17794 12.5885C2.2271 12.5459 2.26672 12.4933 2.2942 12.4344C2.32169 12.3754 2.33642 12.3113 2.33744 12.2462C2.35644 11.7526 2.83744 11.6212 3.08744 11.6212C3.11436 11.621 3.14102 11.6266 3.16559 11.6376C3.19015 11.6487 3.21206 11.6649 3.22981 11.6851Z"/></g><defs><clipPath id="clip0_1536_10227"><rect width="16" height="16" fill="#fff"/></clipPath></defs></svg>