<svg xmlns="http://www.w3.org/2000/svg" width="16" height="16" fill="none" viewBox="0 0 16 16"><g clip-path="url(#clip0_1536_10240)"><path fill="#ACB5BB" fill-rule="evenodd" d="M1.5 16C1.4375 16 1.375 15.9688 1.34375 15.9375C1.25 15.8438 1.25 15.7188 1.34375 15.625L3.15625 13.7812C3.25 13.7188 3.375 13.7188 3.46875 13.7812C3.5625 13.875 3.5625 14.0312 3.46875 14.0938L1.625 15.9375C1.59375 15.9688 1.53125 16 1.5 16ZM14.625 15.9375C14.5625 15.9375 14.5312 15.9375 14.4688 15.875L12.625 14.0312C12.5312 13.9375 12.5312 13.8125 12.625 13.7188C12.6875 13.625 12.8438 13.625 12.9375 13.7188L14.7812 15.5938C14.875 15.6562 14.875 15.8125 14.7812 15.875C14.75 15.9375 14.6875 15.9375 14.625 15.9375ZM3.03125 4.21875C2.9375 4.21875 2.875 4.15625 2.84375 4.09375L2.15625 2.9375C1.90625 2.5 1.84375 1.96875 1.96875 1.46875C2.09375 0.9375 2.4375 0.53125 2.875 0.25C3.34375 0 3.875 -0.0625 4.375 0.0625C4.875 0.21875 5.3125 0.53125 5.5625 0.96875L6.1875 2.0625C6.25 2.1875 6.21875 2.3125 6.09375 2.375C5.375 2.8125 3.375 4.03125 3.125 4.1875C3.09375 4.1875 3.0625 4.21875 3.03125 4.21875ZM13.0312 4.25C13 4.25 12.9688 4.25 12.9062 4.21875C12.8438 4.1875 12.3125 3.75 9.96875 2.375C9.84375 2.3125 9.8125 2.1875 9.875 2.09375L10.375 1.25C10.9062 0.3125 12.125 -0.03125 13.0625 0.53125C14 1.0625 14.3125 2.25 13.7812 3.1875L13.2188 4.15625C13.1875 4.21875 13.0938 4.25 13.0312 4.25Z" clip-rule="evenodd"/><path fill="#99A4AC" fill-rule="evenodd" d="M8 16C6.09375 16 4.28125 15.25 2.9375 13.875C1.59375 12.5312 0.84375 10.75 0.84375 8.8125C0.84375 6.90625 1.59375 5.125 2.9375 3.75C4.28125 2.40625 6.09375 1.65625 8 1.65625C9.90625 1.65625 11.7188 2.40625 13.0625 3.75C14.4062 5.125 15.1562 6.90625 15.1562 8.8125C15.1562 10.75 14.4062 12.5312 13.0625 13.875C11.7188 15.25 9.90625 16 8 16Z" clip-rule="evenodd"/><path fill="#E4E4E4" fill-rule="evenodd" d="M8 15.0625C9.65625 15.0625 11.2188 14.4062 12.4062 13.2188C13.5625 12.0625 14.2188 10.5 14.2188 8.8125C14.2188 7.15625 13.5625 5.59375 12.4062 4.4375C11.2188 3.25 9.65625 2.59375 8 2.59375C6.34375 2.59375 4.78125 3.25 3.59375 4.4375C2.4375 5.59375 1.78125 7.15625 1.78125 8.8125C1.78125 10.5 2.4375 12.0625 3.59375 13.2188C4.78125 14.4062 6.34375 15.0625 8 15.0625Z" clip-rule="evenodd"/><path fill="#A7A7A7" fill-rule="evenodd" d="M8.21875 2.59375C8.15625 2.59375 8.0625 2.59375 8 2.59375C7.9375 2.59375 7.84375 2.59375 7.78125 2.59375V3.0625C7.78125 3.1875 7.875 3.28125 8 3.28125C8.125 3.28125 8.21875 3.1875 8.21875 3.0625V2.59375ZM11.3125 3.5625C11.1875 3.46875 11.0625 3.40625 10.9062 3.34375L10.6875 3.71875C10.625 3.84375 10.6562 3.96875 10.7812 4.03125C10.8125 4.03125 10.8438 4.0625 10.875 4.0625C10.9688 4.0625 11.0312 4.03125 11.0625 3.9375L11.3125 3.5625ZM13.5 5.90625C13.4375 5.78125 13.3438 5.65625 13.2812 5.53125L12.875 5.75C12.7812 5.8125 12.75 5.9375 12.8125 6.0625C12.8438 6.125 12.9062 6.15625 13 6.15625C13.0312 6.15625 13.0625 6.15625 13.0938 6.125L13.5 5.90625ZM14.2188 9.03125C14.2188 8.96875 14.2188 8.90625 14.2188 8.8125C14.2188 8.75 14.2188 8.6875 14.2188 8.59375H13.75C13.625 8.59375 13.5312 8.71875 13.5312 8.8125C13.5312 8.9375 13.625 9.03125 13.75 9.03125H14.2188ZM13.2812 12.125C13.3438 12 13.4375 11.875 13.5 11.75L13.0938 11.5312C13 11.4688 12.875 11.5 12.8125 11.5938C12.75 11.6875 12.7812 11.8438 12.875 11.9062L13.2812 12.125ZM10.9062 14.3125C11.0625 14.25 11.1875 14.1875 11.3125 14.0938L11.0625 13.7188C11 13.5938 10.875 13.5625 10.7812 13.625C10.6562 13.6875 10.625 13.8125 10.6875 13.9375L10.9062 14.3125ZM8 15.0625C8.0625 15.0625 8.15625 15.0312 8.21875 15.0312V14.5938C8.21875 14.4688 8.125 14.375 8 14.375C7.875 14.375 7.78125 14.4688 7.78125 14.5938V15.0312C7.84375 15.0312 7.9375 15.0625 8 15.0625ZM4.6875 14.0938C4.8125 14.1875 4.9375 14.25 5.09375 14.3125L5.3125 13.9375C5.375 13.8125 5.34375 13.6875 5.21875 13.625C5.125 13.5625 5 13.5938 4.9375 13.7188L4.6875 14.0938ZM2.5 11.75C2.5625 11.875 2.65625 12 2.71875 12.125L3.125 11.9062C3.21875 11.8438 3.25 11.6875 3.1875 11.5938C3.125 11.5 3 11.4688 2.90625 11.5312L2.5 11.75ZM1.78125 8.59375C1.78125 8.6875 1.78125 8.75 1.78125 8.8125C1.78125 8.90625 1.78125 8.96875 1.78125 9.03125H2.25C2.375 9.03125 2.46875 8.9375 2.46875 8.8125C2.46875 8.71875 2.375 8.59375 2.25 8.59375H1.78125ZM2.71875 5.53125C2.65625 5.65625 2.5625 5.78125 2.5 5.90625L2.90625 6.125C2.9375 6.15625 2.96875 6.15625 3 6.15625C3.09375 6.15625 3.15625 6.125 3.1875 6.0625C3.25 5.9375 3.21875 5.8125 3.125 5.75L2.71875 5.53125ZM5.09375 3.34375C4.9375 3.40625 4.8125 3.46875 4.6875 3.5625L4.9375 3.9375C4.96875 4.03125 5.03125 4.0625 5.125 4.0625C5.15625 4.0625 5.1875 4.03125 5.21875 4.03125C5.34375 3.96875 5.375 3.84375 5.3125 3.71875L5.09375 3.34375Z" clip-rule="evenodd"/><path fill="#E3B486" fill-rule="evenodd" d="M8.3125 8.90625C8.3125 9 8.40625 9.125 8.53125 9.125H9.96875C10.25 9.125 10.4688 9.34375 10.4688 9.59375V9.875C10.4688 10.1562 10.0312 10.1562 10.0312 9.875V9.59375C10.0312 9.5625 10 9.53125 9.96875 9.53125H8.53125C8.1875 9.53125 7.90625 9.25 7.90625 8.90625V7.90625H7.6875C7.53125 7.90625 7.40625 8.03125 7.40625 8.21875V8.9375C7.40625 9.84375 8.0625 10.5312 8.875 10.5312C9.15625 10.5312 9.15625 10.9688 8.875 10.9688C8.28125 10.9688 7.75 10.6875 7.40625 10.2188C7.375 10.75 6.65625 10.9062 6.65625 10.5312C6.65625 10.4375 6.75 10.3125 6.84375 10.3125C6.9375 10.3125 7 10.25 7 10.1875V8.21875C7 7.96875 6.78125 7.78125 6.5625 7.78125H6.46875C6.40625 7.78125 6.34375 7.78125 6.28125 7.78125C5.84375 7.6875 5.53125 7.3125 5.53125 6.875C5.53125 6.53125 5.8125 6.25 6.15625 6.25C6.28125 6.25 6.375 6.15625 6.375 6.0625C6.375 5.9375 6.28125 5.84375 6.15625 5.84375C5.59375 5.84375 5.125 6.3125 5.125 6.875C5.125 7.3125 5.3125 7.6875 5.625 7.9375C5.65625 7.96875 5.65625 7.96875 5.65625 7.96875C5.28125 8.1875 5 8.53125 4.9375 8.96875L4.875 9.0625C4.75 9.21875 4.53125 9.15625 4.5 8.96875V7.5C3.9375 7.59375 3.53125 8.09375 3.53125 8.65625V9.8125C3.53125 9.90625 3.59375 9.96875 3.6875 9.96875H4.8125C5.0625 9.4375 5.5 9.03125 6.03125 8.875C6.28125 8.78125 6.4375 9.1875 6.15625 9.28125C5.46875 9.5 5 10.1875 5 10.9688C5 12.6875 6.78125 12.8438 7.3125 12.8438C9.15625 12.875 11.2188 11.75 11.25 10.0938C11.2812 8.96875 11.625 8.59375 11.9688 8.28125C12.2188 8 12.4688 7.75 12.4688 6.9375C12.4688 5.78125 11.5 4.8125 10.3438 4.8125C9.15625 4.8125 8.21875 5.78125 8.21875 6.9375C8.21875 7.28125 8.3125 7.53125 8.3125 7.875V8.90625Z" clip-rule="evenodd"/></g><defs><clipPath id="clip0_1536_10240"><rect width="16" height="16" fill="#fff"/></clipPath></defs></svg>