<svg width="16" height="16" viewBox="0 0 16 16" fill="none" xmlns="http://www.w3.org/2000/svg">
<path d="M4.66667 3.99967C4.48986 3.99967 4.32029 3.92944 4.19526 3.80441C4.07024 3.67939 4 3.50982 4 3.33301V1.99967C4 1.82286 4.07024 1.65329 4.19526 1.52827C4.32029 1.40325 4.48986 1.33301 4.66667 1.33301C4.84348 1.33301 5.01305 1.40325 5.13807 1.52827C5.2631 1.65329 5.33333 1.82286 5.33333 1.99967V3.33301C5.33333 3.5097 5.26319 3.67917 5.13831 3.80418C5.01343 3.92918 4.84336 3.9995 4.66667 3.99967ZM11.3333 3.99967C11.1565 3.99967 10.987 3.92944 10.8619 3.80441C10.7369 3.67939 10.6667 3.50982 10.6667 3.33301V1.99967C10.6667 1.82286 10.7369 1.65329 10.8619 1.52827C10.987 1.40325 11.1565 1.33301 11.3333 1.33301C11.5101 1.33301 11.6797 1.40325 11.8047 1.52827C11.9298 1.65329 12 1.82286 12 1.99967V3.33301C12 3.5097 11.9299 3.67917 11.805 3.80418C11.6801 3.92918 11.51 3.9995 11.3333 3.99967Z" fill="#B2B1FF"/>
<path d="M12.6668 2.66699H12.0002V3.33366C12.0002 3.51047 11.9299 3.68004 11.8049 3.80506C11.6799 3.93009 11.5103 4.00033 11.3335 4.00033C11.1567 4.00033 10.9871 3.93009 10.8621 3.80506C10.7371 3.68004 10.6668 3.51047 10.6668 3.33366V2.66699H5.3335V3.33366C5.3335 3.51047 5.26326 3.68004 5.13823 3.80506C5.01321 3.93009 4.84364 4.00033 4.66683 4.00033C4.49002 4.00033 4.32045 3.93009 4.19542 3.80506C4.0704 3.68004 4.00016 3.51047 4.00016 3.33366V2.66699H3.3335C2.80306 2.66699 2.29436 2.87771 1.91928 3.25278C1.54421 3.62785 1.3335 4.13656 1.3335 4.66699V6.00033H14.6668V4.66699C14.6668 4.13656 14.4561 3.62785 14.081 3.25278C13.706 2.87771 13.1973 2.66699 12.6668 2.66699Z" fill="#6563FF"/>
<path d="M4.66667 9.33333C5.03486 9.33333 5.33333 9.03486 5.33333 8.66667C5.33333 8.29848 5.03486 8 4.66667 8C4.29848 8 4 8.29848 4 8.66667C4 9.03486 4.29848 9.33333 4.66667 9.33333Z" fill="#6563FF"/>
<path d="M4.66667 12.0003C5.03486 12.0003 5.33333 11.7018 5.33333 11.3337C5.33333 10.9655 5.03486 10.667 4.66667 10.667C4.29848 10.667 4 10.9655 4 11.3337C4 11.7018 4.29848 12.0003 4.66667 12.0003Z" fill="#6563FF"/>
<path d="M8.00016 9.33333C8.36835 9.33333 8.66683 9.03486 8.66683 8.66667C8.66683 8.29848 8.36835 8 8.00016 8C7.63197 8 7.3335 8.29848 7.3335 8.66667C7.3335 9.03486 7.63197 9.33333 8.00016 9.33333Z" fill="#6563FF"/>
<path d="M8.00016 12.0003C8.36835 12.0003 8.66683 11.7018 8.66683 11.3337C8.66683 10.9655 8.36835 10.667 8.00016 10.667C7.63197 10.667 7.3335 10.9655 7.3335 11.3337C7.3335 11.7018 7.63197 12.0003 8.00016 12.0003Z" fill="#6563FF"/>
<path d="M11.3332 9.33333C11.7014 9.33333 11.9998 9.03486 11.9998 8.66667C11.9998 8.29848 11.7014 8 11.3332 8C10.965 8 10.6665 8.29848 10.6665 8.66667C10.6665 9.03486 10.965 9.33333 11.3332 9.33333Z" fill="#6563FF"/>
<path d="M11.3332 12.0003C11.7014 12.0003 11.9998 11.7018 11.9998 11.3337C11.9998 10.9655 11.7014 10.667 11.3332 10.667C10.965 10.667 10.6665 10.9655 10.6665 11.3337C10.6665 11.7018 10.965 12.0003 11.3332 12.0003Z" fill="#6563FF"/>
<path d="M1.3335 6V12.6667C1.3335 13.1971 1.54421 13.7058 1.91928 14.0809C2.29436 14.456 2.80306 14.6667 3.3335 14.6667H12.6668C13.1973 14.6667 13.706 14.456 14.081 14.0809C14.4561 13.7058 14.6668 13.1971 14.6668 12.6667V6H1.3335ZM4.66683 12C4.49002 12 4.32045 11.9298 4.19542 11.8047C4.0704 11.6797 4.00016 11.5101 4.00016 11.3333C4.00016 11.1565 4.0704 10.987 4.19542 10.8619C4.32045 10.7369 4.49002 10.6667 4.66683 10.6667C4.84364 10.6667 5.01321 10.7369 5.13823 10.8619C5.26326 10.987 5.3335 11.1565 5.3335 11.3333C5.3335 11.5101 5.26326 11.6797 5.13823 11.8047C5.01321 11.9298 4.84364 12 4.66683 12ZM4.66683 9.33333C4.49002 9.33333 4.32045 9.2631 4.19542 9.13807C4.0704 9.01305 4.00016 8.84348 4.00016 8.66667C4.00016 8.48986 4.0704 8.32029 4.19542 8.19526C4.32045 8.07024 4.49002 8 4.66683 8C4.84364 8 5.01321 8.07024 5.13823 8.19526C5.26326 8.32029 5.3335 8.48986 5.3335 8.66667C5.3335 8.84348 5.26326 9.01305 5.13823 9.13807C5.01321 9.2631 4.84364 9.33333 4.66683 9.33333ZM8.00016 12C7.82335 12 7.65378 11.9298 7.52876 11.8047C7.40373 11.6797 7.3335 11.5101 7.3335 11.3333C7.3335 11.1565 7.40373 10.987 7.52876 10.8619C7.65378 10.7369 7.82335 10.6667 8.00016 10.6667C8.17697 10.6667 8.34654 10.7369 8.47157 10.8619C8.59659 10.987 8.66683 11.1565 8.66683 11.3333C8.66683 11.5101 8.59659 11.6797 8.47157 11.8047C8.34654 11.9298 8.17697 12 8.00016 12ZM8.00016 9.33333C7.82335 9.33333 7.65378 9.2631 7.52876 9.13807C7.40373 9.01305 7.3335 8.84348 7.3335 8.66667C7.3335 8.48986 7.40373 8.32029 7.52876 8.19526C7.65378 8.07024 7.82335 8 8.00016 8C8.17697 8 8.34654 8.07024 8.47157 8.19526C8.59659 8.32029 8.66683 8.48986 8.66683 8.66667C8.66683 8.84348 8.59659 9.01305 8.47157 9.13807C8.34654 9.2631 8.17697 9.33333 8.00016 9.33333ZM11.3335 12C11.1567 12 10.9871 11.9298 10.8621 11.8047C10.7371 11.6797 10.6668 11.5101 10.6668 11.3333C10.6668 11.1565 10.7371 10.987 10.8621 10.8619C10.9871 10.7369 11.1567 10.6667 11.3335 10.6667C11.5103 10.6667 11.6799 10.7369 11.8049 10.8619C11.9299 10.987 12.0002 11.1565 12.0002 11.3333C12.0002 11.5101 11.9299 11.6797 11.8049 11.8047C11.6799 11.9298 11.5103 12 11.3335 12ZM11.3335 9.33333C11.1567 9.33333 10.9871 9.2631 10.8621 9.13807C10.7371 9.01305 10.6668 8.84348 10.6668 8.66667C10.6668 8.48986 10.7371 8.32029 10.8621 8.19526C10.9871 8.07024 11.1567 8 11.3335 8C11.5103 8 11.6799 8.07024 11.8049 8.19526C11.9299 8.32029 12.0002 8.48986 12.0002 8.66667C12.0002 8.84348 11.9299 9.01305 11.8049 9.13807C11.6799 9.2631 11.5103 9.33333 11.3335 9.33333Z" fill="#B2B1FF"/>
</svg>
