<svg width="17" height="19" viewBox="0 0 17 19" fill="none" xmlns="http://www.w3.org/2000/svg">
<path d="M11.5229 14.4333C11.5469 14.3426 11.645 14.2965 11.7264 14.3402C11.8079 14.384 11.9095 14.4269 12.0134 14.4423C12.3113 14.4859 12.6293 14.3474 12.5577 13.8791C12.3481 12.5092 12.5205 11.699 12.7066 10.7128C13.0342 8.9775 12.6173 7.48575 10.5025 6.2679C8.81582 5.29648 9.5196 3.22346 7.73258 2.31007C4.93028 0.877795 3.02648 3.49735 3.02648 3.49735C3.02648 3.49735 1.0301 5.92496 2.60958 9.0688C3.74145 11.3217 6.51139 12.8744 6.51139 12.8744C6.51139 12.8744 7.35841 13.4189 7.80522 13.7537C8.25202 14.0885 8.87462 14.2526 9.35113 14.2526C9.82764 14.2526 10.2765 14.0785 10.5444 14.4743C10.7829 14.8268 11.3923 14.9254 11.5229 14.4333Z" stroke="#2D4960" stroke-width="0.73944" stroke-miterlimit="10"/>
<path d="M5.29842 9.64201C5.532 9.47252 5.64167 9.0988 5.71654 8.94906C5.79141 8.79933 5.84574 8.75232 5.84574 8.75232C5.98023 8.69243 6.08054 8.54893 6.15419 8.47157C6.2075 8.41563 6.14096 8.34097 6.10983 8.30208C6.09559 8.2844 6.08928 8.26111 6.09315 8.23864C6.10963 8.1436 6.04798 8.11574 5.99935 8.10846C5.96985 8.10388 5.94584 8.08225 5.93709 8.05314C5.91044 7.96517 5.82783 7.95872 5.76924 7.96621C5.73628 7.97037 5.70372 7.95415 5.68887 7.92378C5.6555 7.85495 5.59507 7.85744 5.54828 7.87304C5.51816 7.88302 5.485 7.87408 5.46262 7.85099C5.42315 7.81002 5.33667 7.80316 5.29415 7.88115C5.23616 7.987 5.17329 8.21494 5.15457 8.35407C5.13565 8.49341 5.08519 8.7072 5.08519 8.7072C4.80767 8.95093 4.18548 9.48832 4.81398 9.99826C5.44248 10.5082 5.23209 10.382 6.48889 11.562C7.74568 12.742 8.73288 12.846 9.7976 12.5976C10.8304 12.3566 11.2703 11.5312 11.6078 10.5107C11.9454 9.49019 11.6101 8.90373 11.1871 8.30208C10.7641 7.70043 9.85681 7.29468 9.32109 7.64365C9.01244 7.84455 8.75648 7.90465 8.55627 7.89384C8.35607 7.88302 8.22402 7.66112 8.02666 7.66632C7.80265 7.67235 7.4769 7.83956 7.19938 7.97494C6.97842 8.08288 6.76153 9.15017 6.76153 9.15017" stroke="#2D4960" stroke-width="0.73944" stroke-miterlimit="10"/>
<path d="M5.9252 9.81668C5.9252 9.81668 5.66599 9.58688 5.41309 9.53613" stroke="#2D4960" stroke-width="0.73944" stroke-miterlimit="10"/>
<path d="M5.86285 5.46914C5.65918 5.3038 5.31289 5.1524 5.16457 5.074C5.01176 4.9931 4.64167 4.55283 4.36414 4.56469C4.08682 4.57654 3.18507 5.02513 3.35517 6.81157C3.51468 8.48862 4.43108 9.43508 4.54299 9.54489" stroke="#2D4960" stroke-width="0.73944" stroke-miterlimit="10"/>
<path d="M6.59473 5.82422C7.34673 6.88548 6.95811 8.41092 6.95811 8.41092" stroke="#2D4960" stroke-width="0.73944" stroke-miterlimit="10"/>
<path d="M4.72656 6.86013C4.72656 6.86013 4.9229 6.64946 5.24071 6.65154C5.44682 6.65279 5.93635 6.80564 6.31642 6.24205C6.63647 5.76705 6.86272 5.34925 7.27148 5.25088C7.68024 5.15251 7.63222 5.15688 7.63588 5.09781C7.63812 5.061 7.62835 5.0427 7.61472 5.03542C7.60028 5.02752 7.59275 5.01088 7.59214 4.99404C7.59132 4.97158 7.5842 4.94558 7.55755 4.93394C7.53863 4.92562 7.52683 4.90544 7.52967 4.88465C7.53395 4.8522 7.52296 4.81186 7.44748 4.80063C7.42815 4.79772 7.41289 4.78337 7.4076 4.76403C7.40007 4.73637 7.37728 4.70018 7.30993 4.68916C7.29345 4.68645 7.27901 4.67543 7.27331 4.65942C7.26395 4.63238 7.22428 4.59828 7.07331 4.62989C6.84339 4.67813 6.77727 4.67959 6.59069 4.79376C6.40412 4.90794 6.24236 4.87758 6.14816 4.96305C6.06962 5.03418 6.03035 5.13005 6.0328 5.19805C6.03402 5.22925 6.02384 5.25961 6.00635 5.28519C5.92822 5.39916 5.72394 5.67014 5.53045 5.70383C5.53045 5.70383 5.27062 5.43638 4.91802 5.4212" stroke="#2D4960" stroke-width="0.73944" stroke-miterlimit="10"/>
<path d="M6.79605 4.6929C6.78262 4.66274 6.76167 4.62281 6.74539 4.59245C6.73237 4.56832 6.73806 4.53817 6.75902 4.5207C6.79056 4.4947 6.8457 4.44541 6.93827 4.35266C7.11508 4.1761 7.20176 4.25845 7.30349 4.10913C7.37266 4.00764 7.30613 3.94151 7.25649 3.90948C7.23472 3.89555 7.22129 3.87059 7.22312 3.84439C7.22821 3.76744 7.15699 3.72959 7.11162 3.71337C7.09148 3.70609 7.07622 3.68945 7.0695 3.66866C7.04916 3.60523 6.98486 3.58318 6.94356 3.57569C6.92301 3.57195 6.90531 3.55947 6.89473 3.54117C6.86441 3.48814 6.80989 3.49708 6.77286 3.51143C6.75231 3.51934 6.73033 3.51518 6.71141 3.50374C6.6697 3.47837 6.58445 3.52121 6.43734 3.70526C6.25626 3.93194 5.96694 4.26095 5.87802 4.3799C5.81983 4.45768 5.87701 4.5363 5.9234 4.58142C5.94049 4.59806 5.93235 4.62759 5.90956 4.633C5.81312 4.65609 5.62878 4.72971 5.46479 4.80603C5.27781 4.89317 5.08309 4.93143 5.00049 4.94662" stroke="#2D4960" stroke-width="0.73944" stroke-miterlimit="10"/>
<path d="M14.385 0.244141C14.385 0.244141 13.042 5.1763 14.783 9.34584C16.5241 13.5154 16.8724 15.8544 15.6286 18.2441" stroke="#2D4960" stroke-width="0.73944" stroke-miterlimit="10"/>
<path d="M5.87866 13.668C5.87866 13.668 5.63003 15.4475 5.33155 16.2104C5.03307 16.9732 4.58545 18.2443 4.58545 18.2443" stroke="#2D4960" stroke-width="0.73944" stroke-miterlimit="10"/>
<path d="M5.57991 15.4476C5.08245 15.0916 4.38599 13.4137 4.38599 13.4137C2.07099 11.5732 1.0262 9.62451 0.693135 7.80376C0.67869 7.72494 0.631893 7.65548 0.563123 7.61659C0.447555 7.55108 0.369629 7.42526 0.369629 7.28072C0.369629 7.16863 0.416425 7.06797 0.491096 6.99768C0.549287 6.94298 0.580417 6.86416 0.576551 6.78347C0.401776 3.0829 2.89359 0.244141 2.89359 0.244141" stroke="#2D4960" stroke-width="0.73944" stroke-miterlimit="10"/>
<path d="M11.2765 18.0775C11.2765 18.0775 10.2533 17.5719 10.9314 16.6294C11.6093 15.6869 12.4702 15.4467 12.3613 14.3906" stroke="#2D4960" stroke-width="0.73944" stroke-miterlimit="10"/>
<path d="M10.8156 14.7236C10.8156 14.7236 11.0586 15.4361 10.1377 16.2206C9.48682 16.775 9.24307 17.1402 9.05893 17.3736C8.76066 17.7514 8.32057 17.7452 8.18506 17.6899" stroke="#2D4960" stroke-width="0.73944" stroke-miterlimit="10"/>
</svg>
