<svg width="22" height="24" viewBox="0 0 22 24" fill="none" xmlns="http://www.w3.org/2000/svg">
<path d="M17 0L21 4V23C21 23.5523 20.5523 24 20 24H2C1.44772 24 1 23.5523 1 23V1C1 0.447715 1.44772 8.0532e-09 2 0H17Z" fill="#E4E7EC"/>
<path d="M21 4H17V0L21 4Z" fill="#98A2B3"/>
<rect y="10" width="22" height="10" rx="1" fill="#CC400C"/>
<path d="M3.6637 17.909V12.0908H5.84552C6.29249 12.0908 6.66749 12.1742 6.97052 12.3408C7.27545 12.5075 7.50556 12.7367 7.66086 13.0283C7.81806 13.3181 7.89666 13.6476 7.89666 14.017C7.89666 14.3901 7.81806 14.7215 7.66086 15.0113C7.50367 15.301 7.27166 15.5293 6.96484 15.6959C6.65802 15.8607 6.28018 15.9431 5.83132 15.9431H4.38529V15.0766H5.68927C5.95064 15.0766 6.16465 15.0312 6.33132 14.9403C6.49798 14.8493 6.62109 14.7243 6.70064 14.5653C6.78208 14.4062 6.82279 14.2234 6.82279 14.017C6.82279 13.8105 6.78208 13.6287 6.70064 13.4715C6.62109 13.3143 6.49704 13.1921 6.32848 13.105C6.16181 13.016 5.94685 12.9715 5.68359 12.9715H4.71768V17.909H3.6637Z" fill="white"/>
<path d="M10.7837 17.909H8.81214V12.0908H10.8235C11.4012 12.0908 11.8974 12.2073 12.3121 12.4403C12.7288 12.6713 13.0489 13.0037 13.2724 13.4374C13.4959 13.8711 13.6076 14.3901 13.6076 14.9942C13.6076 15.6003 13.4949 16.1211 13.2695 16.5567C13.046 16.9923 12.7231 17.3266 12.3008 17.5596C11.8803 17.7925 11.3746 17.909 10.7837 17.909ZM9.86612 16.9971H10.7326C11.1379 16.9971 11.476 16.9232 11.7468 16.7755C12.0176 16.6259 12.2212 16.4033 12.3576 16.1079C12.494 15.8105 12.5621 15.4393 12.5621 14.9942C12.5621 14.5492 12.494 14.1798 12.3576 13.8863C12.2212 13.5908 12.0195 13.3702 11.7525 13.2243C11.4873 13.0766 11.1578 13.0028 10.7638 13.0028H9.86612V16.9971Z" fill="white"/>
<path d="M14.609 17.909V12.0908H18.3363V12.9743H15.663V14.5539H18.0806V15.4374H15.663V17.909H14.609Z" fill="white"/>
</svg>
